<svg xmlns="http://www.w3.org/2000/svg" width="24" height="24" viewBox="0 0 24 24">
  <g id="그룹_1325" data-name="그룹 1325" transform="translate(-20 -40)">
    <g id="그룹_841" data-name="그룹 841" transform="translate(-114.67 32.33)">
      <g id="그룹_813" data-name="그룹 813" transform="translate(134.67 7.67)">
        <rect id="사각형_42" data-name="사각형 42" width="24" height="24" fill="none"/>
      </g>
    </g>
    <path id="pen-to-square-solid" d="M11.168,5.664a1.325,1.325,0,0,0-1.876,0l-.713.71L10.9,8.693l.713-.713a1.325,1.325,0,0,0,0-1.876Zm-7.086,5.21a1.308,1.308,0,0,0-.32.519l-.7,2.1a.571.571,0,0,0,.137.583.564.564,0,0,0,.583.137l2.1-.7a1.342,1.342,0,0,0,.519-.32L10.365,9.23,8.045,6.91ZM2.273,6.666A2.274,2.274,0,0,0,0,8.939V15a2.274,2.274,0,0,0,2.273,2.273H8.336A2.274,2.274,0,0,0,10.609,15V12.728a.758.758,0,0,0-1.516,0V15a.757.757,0,0,1-.758.758H2.273A.757.757,0,0,1,1.516,15V8.939a.757.757,0,0,1,.758-.758H4.547a.758.758,0,0,0,0-1.516Z" transform="translate(26 40.725)" fill="#b5b5b5"/>
  </g>
</svg>
