<svg id="folder" xmlns="http://www.w3.org/2000/svg" width="24" height="24" viewBox="0 0 24 24">
  <g id="그룹_606" data-name="그룹 606">
    <g id="그룹_604" data-name="그룹 604">
      <rect id="사각형_3" data-name="사각형 3" width="24" height="24" fill="none"/>
    </g>
  </g>
  <path id="folder-plus-solid" d="M12,40.571A1.467,1.467,0,0,1,10.5,42h-9A1.467,1.467,0,0,1,0,40.571V33.429A1.467,1.467,0,0,1,1.5,32h3a1.53,1.53,0,0,1,1.2.571l.45.571a.758.758,0,0,0,.6.286H10.5A1.467,1.467,0,0,1,12,34.857Zm-6.562-.893a.563.563,0,0,0,1.125,0V38.25h1.5a.536.536,0,1,0,0-1.071h-1.5V35.75a.563.563,0,0,0-1.125,0v1.429h-1.5a.536.536,0,1,0,0,1.071h1.5Z" transform="translate(6 -25)" fill="#b5b5b5"/>
</svg>
