<svg xmlns="http://www.w3.org/2000/svg" width="24" height="24" viewBox="0 0 24 24">
  <g id="그룹_1326" data-name="그룹 1326" transform="translate(-20 -40)">
    <g id="그룹_841" data-name="그룹 841" transform="translate(-114.67 32.33)">
      <g id="그룹_813" data-name="그룹 813" transform="translate(134.67 7.67)">
        <rect id="사각형_42" data-name="사각형 42" width="24" height="24" fill="none"/>
      </g>
    </g>
    <path id="location-crosshairs-solid" d="M7,0a.874.874,0,0,1,.875.875v.949a5.246,5.246,0,0,1,4.3,4.3h.949a.875.875,0,0,1,0,1.75h-.949a5.246,5.246,0,0,1-4.3,4.3v.949a.875.875,0,0,1-1.75,0v-.949a5.246,5.246,0,0,1-4.3-4.3H.875a.875.875,0,1,1,0-1.75h.949a5.246,5.246,0,0,1,4.3-4.3V.875A.874.874,0,0,1,7,0ZM3.5,7A3.5,3.5,0,1,0,7,3.5,3.5,3.5,0,0,0,3.5,7ZM7,4.813A2.188,2.188,0,1,1,4.813,7,2.188,2.188,0,0,1,7,4.813Z" transform="translate(25 45)" fill="#b5b5b5"/>
  </g>
</svg>
