<svg xmlns="http://www.w3.org/2000/svg" width="16" height="16" viewBox="0 0 16 16">
  <g id="그룹_1352" data-name="그룹 1352" transform="translate(0)">
    <rect id="사각형_41" data-name="사각형 41" width="16" height="16" transform="translate(0)" fill="none"/>
    <path id="music-solid" d="M9.748.07a.626.626,0,0,1,.252.5V7.134A1.74,1.74,0,0,1,8.125,8.7,1.74,1.74,0,0,1,6.25,7.134,1.74,1.74,0,0,1,8.125,5.571a2.178,2.178,0,0,1,.625.09V2.818l-5,1.5V8.384A1.74,1.74,0,0,1,1.875,9.946,1.74,1.74,0,0,1,0,8.384,1.74,1.74,0,0,1,1.875,6.821a2.178,2.178,0,0,1,.625.09V2.447a.628.628,0,0,1,.445-.6L9.2-.028a.622.622,0,0,1,.553.1Z" transform="translate(3 3.054)" fill="#484b4e"/>
  </g>
</svg>
