<svg xmlns="http://www.w3.org/2000/svg" width="16" height="16" viewBox="0 0 16 16">
  <g id="그룹_1351" data-name="그룹 1351" transform="translate(0)">
    <rect id="사각형_41" data-name="사각형 41" width="16" height="16" transform="translate(0)" fill="none"/>
    <path id="file-image-solid" d="M9.145,2.9v.144H6.1V0h.144a.572.572,0,0,1,.4.167L8.978,2.5A.572.572,0,0,1,9.145,2.9Zm-3.239.906a.573.573,0,0,1-.572-.572V0H.572A.572.572,0,0,0,0,.572V11.622a.572.572,0,0,0,.572.572h8a.572.572,0,0,0,.572-.572V3.811ZM2.68,4.192A1.143,1.143,0,1,1,1.537,5.335,1.143,1.143,0,0,1,2.68,4.192ZM7.634,9.908h-6.1l.012-1.155.941-.941a.272.272,0,0,1,.393.012l.941.941L6.289,6.3a.286.286,0,0,1,.4,0l.941.941V9.908Z" transform="translate(3.697 2.147)" fill="#484b4e"/>
  </g>
</svg>
