<svg id="그룹_1350" data-name="그룹 1350" xmlns="http://www.w3.org/2000/svg" width="16" height="16" viewBox="0 0 16 16">
  <rect id="사각형_5" data-name="사각형 5" width="16" height="16" fill="none"/>
  <path id="shapes-solid" d="M2.667,5.332A2.667,2.667,0,1,0,5.333,8,2.667,2.667,0,0,0,2.667,5.332Zm7.9-1.143L8.335.38A.776.776,0,0,0,7,.38L4.771,4.189a.762.762,0,0,0,.669,1.143H9.894A.762.762,0,0,0,10.562,4.189ZM10,6H6.667A.667.667,0,0,0,6,6.666V10a.667.667,0,0,0,.667.667H10A.667.667,0,0,0,10.666,10V6.666A.667.667,0,0,0,10,6Z" transform="translate(2.667 2.668)" fill="#b5b5b5"/>
</svg>
