<svg xmlns="http://www.w3.org/2000/svg" width="16" height="16" viewBox="0 0 16 16">
  <g id="그룹_1352" data-name="그룹 1352" transform="translate(0)">
    <rect id="사각형_41" data-name="사각형 41" width="16" height="16" transform="translate(0)" fill="none"/>
    <path id="video-solid" d="M0,65.023A1.024,1.024,0,0,1,1.023,64H5.116a1.024,1.024,0,0,1,1.023,1.023v4.093a1.024,1.024,0,0,1-1.023,1.023H1.023A1.024,1.024,0,0,1,0,69.116Zm8.938-.451a.512.512,0,0,1,.27.451v4.093a.512.512,0,0,1-.8.425L6.878,68.518l-.227-.152V65.773l.227-.152L8.412,64.6a.513.513,0,0,1,.526-.026Z" transform="translate(3.581 -58.884)" fill="#484b4e"/>
  </g>
</svg>
