<svg width="120" height="38" viewBox="0 0 120 38" fill="none" xmlns="http://www.w3.org/2000/svg">
<path d="M22.7246 11.6533L13.6348 5.92578V21.6963L18.7012 24.6982L0 36.083V13.9492L22.7246 0.115234V11.6533Z" fill="#020079"/>
<path d="M32.374 24.7612L19.0578 16.7012V29.8253L32.374 37.8853V24.7612Z" fill="#023FF3"/>
<path d="M112.071 31.7627C110.607 31.7627 109.198 31.5771 107.844 31.2057C106.511 30.8125 105.452 30.3429 104.666 29.7968L106.238 26.684C107.025 27.1865 107.964 27.6015 109.056 27.9291C110.148 28.2568 111.241 28.4206 112.333 28.4206C113.622 28.4206 114.55 28.2459 115.118 27.8964C115.708 27.5469 116.002 27.0772 116.002 26.4874C116.002 26.0069 115.806 25.6465 115.413 25.4062C115.02 25.144 114.506 24.9475 113.873 24.8164C113.239 24.6853 112.529 24.5652 111.743 24.456C110.978 24.3467 110.203 24.2048 109.417 24.03C108.652 23.8334 107.953 23.5604 107.32 23.2109C106.686 22.8395 106.173 22.348 105.78 21.7364C105.386 21.1248 105.19 20.3166 105.19 19.3117C105.19 18.1977 105.507 17.2366 106.14 16.4283C106.773 15.5983 107.658 14.9648 108.794 14.5279C109.952 14.0692 111.317 13.8398 112.89 13.8398C114.069 13.8398 115.26 13.9709 116.461 14.233C117.663 14.4952 118.657 14.8665 119.443 15.3471L117.87 18.4598C117.04 17.9574 116.199 17.6188 115.347 17.4441C114.517 17.2475 113.687 17.1492 112.857 17.1492C111.612 17.1492 110.684 17.3349 110.072 17.7062C109.482 18.0776 109.187 18.5472 109.187 19.1151C109.187 19.6394 109.384 20.0326 109.777 20.2947C110.17 20.5568 110.684 20.7644 111.317 20.9173C111.95 21.0702 112.649 21.2012 113.414 21.3104C114.2 21.3978 114.976 21.5398 115.74 21.7364C116.505 21.933 117.204 22.206 117.837 22.5555C118.493 22.8832 119.017 23.3529 119.41 23.9645C119.803 24.5761 120 25.3734 120 26.3564C120 27.4486 119.672 28.3988 119.017 29.207C118.383 30.0152 117.477 30.6487 116.297 31.1074C115.118 31.5443 113.709 31.7627 112.071 31.7627Z" fill="#45494F"/>
<path d="M94.1619 13.8398C95.5599 13.8398 96.805 14.1129 97.8972 14.659C99.0113 15.2051 99.885 16.0461 100.519 17.182C101.152 18.296 101.469 19.7377 101.469 21.507V31.5334H97.373V22.0313C97.373 20.4804 97.0016 19.3227 96.2589 18.5581C95.5381 17.7936 94.5224 17.4113 93.2117 17.4113C92.2506 17.4113 91.3987 17.6079 90.656 18.0011C89.9133 18.3943 89.3344 18.9841 88.9194 19.7705C88.5262 20.535 88.3296 21.507 88.3296 22.6866V31.5334H84.2339V14.0364H88.133V18.7547L87.4449 17.313C88.0566 16.199 88.9412 15.3471 90.099 14.7573C91.2785 14.1457 92.6329 13.8398 94.1619 13.8398Z" fill="#45494F"/>
<path d="M74.7626 31.5335V14.0365H78.8583V31.5335H74.7626ZM76.8268 11.1532C76.0623 11.1532 75.4288 10.9129 74.9264 10.4323C74.4458 9.95174 74.2056 9.37288 74.2056 8.69572C74.2056 7.99671 74.4458 7.41785 74.9264 6.95913C75.4288 6.47856 76.0623 6.23828 76.8268 6.23828C77.5914 6.23828 78.2139 6.46764 78.6945 6.92636C79.1969 7.36324 79.4481 7.92026 79.4481 8.59742C79.4481 9.31827 79.2078 9.92989 78.7272 10.4323C78.2467 10.9129 77.6132 11.1532 76.8268 11.1532Z" fill="#45494F"/>
<path d="M65.2909 31.5335V14.0365H69.3866V31.5335H65.2909ZM67.3552 11.1532C66.5906 11.1532 65.9571 10.9129 65.4547 10.4323C64.9742 9.95174 64.7339 9.37288 64.7339 8.69572C64.7339 7.99671 64.9742 7.41785 65.4547 6.95913C65.9571 6.47856 66.5906 6.23828 67.3552 6.23828C68.1197 6.23828 68.7422 6.46764 69.2228 6.92636C69.7252 7.36324 69.9764 7.92026 69.9764 8.59742C69.9764 9.31827 69.7361 9.92989 69.2556 10.4323C68.775 10.9129 68.1415 11.1532 67.3552 11.1532Z" fill="#45494F"/>
<path d="M47.8026 27.6338L47.9009 22.4896L57.0425 14.036H61.9574L54.1919 21.8343L52.0294 23.6364L47.8026 27.6338ZM44.4604 31.5329V7.2207H48.5562V31.5329H44.4604ZM57.6651 31.5329L51.2757 23.6364L53.8642 20.3598L62.6455 31.5329H57.6651Z" fill="#45494F"/>
</svg>
