<svg xmlns="http://www.w3.org/2000/svg" width="12" height="6.001" viewBox="0 0 12 6.001">
  <path id="infinity-solid" d="M9.279,96a2.7,2.7,0,0,0-1.924.8L6,98.153,4.646,96.8A2.722,2.722,0,0,0,0,98.721v.558A2.721,2.721,0,0,0,4.644,101.2L6,99.849,7.354,101.2A2.722,2.722,0,0,0,12,99.279v-.558A2.724,2.724,0,0,0,9.279,96ZM3.8,100.356a1.521,1.521,0,0,1-2.6-1.076v-.558a1.522,1.522,0,0,1,2.6-1.076L5.152,99Zm7-1.076a1.522,1.522,0,0,1-2.6,1.076L6.848,99,8.2,97.646a1.522,1.522,0,0,1,2.6,1.075Z" transform="translate(0 -96)" fill="#676767"/>
</svg>
