<svg xmlns="http://www.w3.org/2000/svg" width="24" height="24" viewBox="0 0 24 24">
  <g id="그룹_879" data-name="그룹 879" transform="translate(-192 -8)">
    <g id="그룹_870" data-name="그룹 870" transform="translate(56)">
      <g id="그룹_866" data-name="그룹 866" transform="translate(-2991.635 -1304.635)">
        <rect id="사각형_217" data-name="사각형 217" width="24" height="24" transform="translate(3127.635 1312.635)" fill="none"/>
      </g>
    </g>
    <path id="pen-to-square-solid" d="M11.611,6.087a1.325,1.325,0,0,1,0,1.876l-.71.713L8.58,6.355l.713-.712a1.326,1.326,0,0,1,1.876,0ZM4.083,10.854,8.045,6.891l2.321,2.32L6.4,13.173a1.314,1.314,0,0,1-.519.322l-2.1.7a.534.534,0,0,1-.583-.159.53.53,0,0,1-.137-.561l.7-2.1a1.314,1.314,0,0,1,.322-.519Zm.464-4.23a.771.771,0,0,1,.758.758.744.744,0,0,1-.758.758H2.273a.771.771,0,0,0-.758.758v6.084a.757.757,0,0,0,.758.758H8.336a.757.757,0,0,0,.758-.758V12.687a.758.758,0,0,1,1.516,0v2.295a2.274,2.274,0,0,1-2.273,2.273H2.273A2.274,2.274,0,0,1,0,14.982V8.9A2.274,2.274,0,0,1,2.273,6.625Z" transform="translate(199 7.732)" fill="#878787"/>
  </g>
</svg>
