<svg xmlns="http://www.w3.org/2000/svg" width="16" height="16" viewBox="0 0 16 16">
  <g id="그룹_815" data-name="그룹 815" transform="translate(-280 -972)">
    <rect id="사각형_85" data-name="사각형 85" width="16" height="16" transform="translate(280 972)" fill="none"/>
    <path id="eye-regular" d="M13.916,68.62A7.765,7.765,0,0,0,7,64,7.766,7.766,0,0,0,.085,68.62a.9.9,0,0,0,0,.76A7.765,7.765,0,0,0,7,74a7.766,7.766,0,0,0,6.915-4.62.9.9,0,0,0,0-.76ZM7,72.75A6.567,6.567,0,0,1,1.218,69,6.567,6.567,0,0,1,7,65.25,6.567,6.567,0,0,1,12.784,69,6.567,6.567,0,0,1,7,72.75Z" transform="translate(280.999 911)" fill="#b5b5b5"/>
    <circle id="타원_47" data-name="타원 47" cx="3" cy="3" r="3" transform="translate(285 977)" fill="#b5b5b5"/>
  </g>
</svg>
