<svg xmlns="http://www.w3.org/2000/svg" width="8" height="6" viewBox="0 0 8 6">
  <path id="layer-group-solid" d="M7.783,3.664A.543.543,0,0,1,8,4.115a.574.574,0,0,1-.217.49L4.367,6.787a.659.659,0,0,1-.734,0L.218,4.606A.575.575,0,0,1,0,4.115a.544.544,0,0,1,.218-.451ZM4.577,7.414,6.952,5.9l.831.531A.543.543,0,0,1,8,6.88a.574.574,0,0,1-.217.49L4.367,9.552a.659.659,0,0,1-.734,0L.218,7.37A.575.575,0,0,1,0,6.88a.544.544,0,0,1,.218-.451L1.049,5.9,3.423,7.414a1.03,1.03,0,0,0,1.153,0Z" transform="translate(0 -3.664)" fill="#484b4e"/>
</svg>
