<svg xmlns="http://www.w3.org/2000/svg" width="24" height="24" viewBox="0 0 24 24">
  <g id="그룹_849" data-name="그룹 849" transform="translate(-552 -930)">
    <g id="그룹_136" data-name="그룹 136" transform="translate(-28 2)">
      <rect id="사각형_119" data-name="사각형 119" width="24" height="24" transform="translate(580 928)" fill="none"/>
    </g>
    <g id="그룹_853" data-name="그룹 853" transform="translate(0 2)">
      <g id="그룹_852" data-name="그룹 852" transform="translate(-2 14)">
        <g id="패스_357" data-name="패스 357" transform="translate(560 926)" fill="#b5b5b5">
          <path d="M 6 11 C 3.242990016937256 11 1 8.757010459899902 1 6 C 1 3.242990016937256 3.242990016937256 1 6 1 C 8.757010459899902 1 11 3.242990016937256 11 6 C 11 8.757010459899902 8.757010459899902 11 6 11 Z" stroke="none"/>
          <path d="M 6 2 C 3.794389724731445 2 2 3.794389724731445 2 6 C 2 8.205610275268555 3.794389724731445 10 6 10 C 8.205610275268555 10 10 8.205610275268555 10 6 C 10 3.794389724731445 8.205610275268555 2 6 2 M 6 0 C 9.31371021270752 0 12 2.68628978729248 12 6 C 12 9.31371021270752 9.31371021270752 12 6 12 C 2.68628978729248 12 0 9.31371021270752 0 6 C 0 2.68628978729248 2.68628978729248 0 6 0 Z" stroke="none" fill="#484b4e"/>
        </g>
      </g>
      <g id="그룹_851" data-name="그룹 851" transform="translate(-2 10)">
        <g id="패스_357-2" data-name="패스 357" transform="translate(559 924)" fill="#b5b5b5">
          <path d="M 7.000000476837158 13 C 3.691590547561646 13 1.000000476837158 10.30841064453125 1.000000476837158 7.000000476837158 C 1.000000476837158 3.691590547561646 3.691590547561646 1.000000476837158 7.000000476837158 1.000000476837158 C 10.30841064453125 1.000000476837158 13 3.691590547561646 13 7.000000476837158 C 13 10.30841064453125 10.30841064453125 13 7.000000476837158 13 Z" stroke="none"/>
          <path d="M 7.000000476837158 2.000000953674316 C 4.242990493774414 2.000000953674316 2.000000953674316 4.242990493774414 2.000000953674316 7.000000476837158 C 2.000000953674316 9.757010459899902 4.242990493774414 12 7.000000476837158 12 C 9.757010459899902 12 12 9.757010459899902 12 7.000000476837158 C 12 4.242990493774414 9.757010459899902 2.000000953674316 7.000000476837158 2.000000953674316 M 7.000000476837158 9.5367431640625e-07 C 10.86600017547607 9.5367431640625e-07 14 3.134010314941406 14 7.000000476837158 C 14 10.86600017547607 10.86600017547607 14 7.000000476837158 14 C 3.134010314941406 14 9.5367431640625e-07 10.86600017547607 9.5367431640625e-07 7.000000476837158 C 9.5367431640625e-07 3.134010314941406 3.134010314941406 9.5367431640625e-07 7.000000476837158 9.5367431640625e-07 Z" stroke="none" fill="#484b4e"/>
        </g>
      </g>
      <g id="그룹_850" data-name="그룹 850" transform="translate(-2 5)">
        <g id="패스_357-3" data-name="패스 357" transform="translate(558 923)" fill="#b5b5b5">
          <path d="M 8 15 C 4.140190124511719 15 1 11.85980987548828 1 8 C 1 4.140190124511719 4.140190124511719 1 8 1 C 11.85980987548828 1 15 4.140190124511719 15 8 C 15 11.85980987548828 11.85980987548828 15 8 15 Z" stroke="none"/>
          <path d="M 8 2 C 4.691590309143066 2 2 4.691590309143066 2 8 C 2 11.30841064453125 4.691590309143066 14 8 14 C 11.30841064453125 14 14 11.30841064453125 14 8 C 14 4.691590309143066 11.30841064453125 2 8 2 M 8 0 C 12.41827964782715 0 16 3.581720352172852 16 8 C 16 12.41827964782715 12.41827964782715 16 8 16 C 3.581720352172852 16 0 12.41827964782715 0 8 C 0 3.581720352172852 3.581720352172852 0 8 0 Z" stroke="none" fill="#484b4e"/>
        </g>
      </g>
    </g>
  </g>
</svg>
