<svg id="visible_toggle" data-name="visible toggle" xmlns="http://www.w3.org/2000/svg" width="20" height="20" viewBox="0 0 20 20">
  <rect id="사각형_85" data-name="사각형 85" width="20" height="20" fill="none"/>
  <g id="그룹_825" data-name="그룹 825" transform="translate(-1424 -2435)">
    <path id="합치기_11" data-name="합치기 11" d="M-199-625.686l1.725-1.725a8.462,8.462,0,0,1-2.64-3.209.89.89,0,0,1,0-.76A7.765,7.765,0,0,1-193-636a7.164,7.164,0,0,1,3.434.88l1.88-1.88,1.414,1.415-1.657,1.657a8.622,8.622,0,0,1,1.844,2.548.893.893,0,0,1,0,.76A7.766,7.766,0,0,1-193-626a7.1,7.1,0,0,1-2.429-.427l-2.155,2.156Zm6-1.564A6.567,6.567,0,0,0-187.217-631a7.313,7.313,0,0,0-1.569-2.072l-1.311,1.311a3.006,3.006,0,0,1,.1.76,3,3,0,0,1-3,3,3,3,0,0,1-.76-.1l-.673.673A6.006,6.006,0,0,0-193-627.25ZM-198.783-631a7.126,7.126,0,0,0,2.386,2.71l.96-.96A2.986,2.986,0,0,1-196-631a3,3,0,0,1,3-3,2.985,2.985,0,0,1,1.75.564l.764-.764a6.05,6.05,0,0,0-2.515-.55A6.567,6.567,0,0,0-198.783-631Z" transform="translate(1627 3076)" fill="#61c4d8"/>
  </g>
</svg>
