<svg id="group" xmlns="http://www.w3.org/2000/svg" width="20" height="20" viewBox="0 0 20 20">
  <g id="그룹_813" data-name="그룹 813" transform="translate(-0.236 -0.236)">
    <rect id="사각형_42" data-name="사각형 42" width="20" height="20" transform="translate(0.236 0.236)" fill="none"/>
  </g>
  <path id="layer-group-solid" d="M36.541.126a1.093,1.093,0,0,1,.918,0L41.729,2.1a.47.47,0,0,1,0,.852l-4.27,1.973a1.093,1.093,0,0,1-.918,0l-4.27-1.973a.47.47,0,0,1,0-.852Zm4.148,3.993,1.039.481a.47.47,0,0,1,0,.852l-4.27,1.973a1.093,1.093,0,0,1-.918,0l-4.27-1.973a.47.47,0,0,1,0-.852l1.039-.481L36.279,5.49a1.721,1.721,0,0,0,1.441,0ZM37.721,7.99l2.969-1.371,1.039.481a.47.47,0,0,1,0,.852l-4.27,1.973a1.093,1.093,0,0,1-.918,0l-4.27-1.973a.47.47,0,0,1,0-.852l1.039-.481L36.279,7.99A1.721,1.721,0,0,0,37.721,7.99Z" transform="translate(-27 4.975)" fill="#61c4d8"/>
</svg>
