<svg id="visible_toggle" data-name="visible toggle" xmlns="http://www.w3.org/2000/svg" width="20" height="20" viewBox="0 0 20 20">
  <rect id="사각형_85" data-name="사각형 85" width="20" height="20" fill="none"/>
  <g id="그룹_825" data-name="그룹 825" transform="translate(-1424 -2435)">
    <path id="합치기_11" data-name="합치기 11" d="M-199.915-630.62a.891.891,0,0,1,0-.76A7.765,7.765,0,0,1-193-636a7.766,7.766,0,0,1,6.916,4.62.893.893,0,0,1,0,.76A7.766,7.766,0,0,1-193-626,7.764,7.764,0,0,1-199.915-630.62Zm1.132-.38A6.566,6.566,0,0,0-193-627.25,6.567,6.567,0,0,0-187.217-631,6.568,6.568,0,0,0-193-634.75,6.567,6.567,0,0,0-198.783-631Zm2.783,0a3,3,0,0,1,3-3,3,3,0,0,1,3,3,3,3,0,0,1-3,3A3,3,0,0,1-196-631Z" transform="translate(1627 3076)" fill="#61c4d8"/>
  </g>
</svg>
