<svg xmlns="http://www.w3.org/2000/svg" width="24" height="24" viewBox="0 0 24 24">
  <g id="그룹_40" data-name="그룹 40" transform="translate(-468 -928)">
    <rect id="사각형_43" data-name="사각형 43" width="24" height="24" transform="translate(468 928)" fill="none"/>
    <path id="forward-solid" d="M15.641,69.225l-6-5A1,1,0,0,0,8,64.994v10a1,1,0,0,0,1.641.769l6-5a1,1,0,0,0,0-1.538Zm-8,0-6-5A1,1,0,0,0,0,64.994v10a1,1,0,0,0,1.641.769l6-5a1,1,0,0,0,0-1.538Z" transform="translate(472 870.005)" fill="#b5b5b5"/>
  </g>
</svg>
