<svg xmlns="http://www.w3.org/2000/svg" width="24" height="24" viewBox="0 0 24 24">
  <g id="그룹_1267" data-name="그룹 1267" transform="translate(-136 -8)">
    <g id="그룹_866" data-name="그룹 866" transform="translate(-2991.689 -1304.69)">
      <rect id="사각형_217" data-name="사각형 217" width="24" height="24" transform="translate(3127.689 1312.69)" fill="none"/>
    </g>
    <g id="add" transform="translate(142 14)">
      <g id="그룹_866-2" data-name="그룹 866" transform="translate(-0.285 -0.285)">
        <rect id="사각형_217-2" data-name="사각형 217" width="12" height="12" transform="translate(0.285 0.285)" fill="none"/>
      </g>
      <g id="그룹_867" data-name="그룹 867" transform="translate(0.218 0.218)">
        <path id="합치기_6" data-name="합치기 6" d="M5,10V7H2A1,1,0,0,1,2,5H5V2A1,1,0,0,1,7,2V5h3a1,1,0,1,1,0,2H7v3a1,1,0,0,1-2,0Z" transform="translate(-0.218 -0.218)" fill="#61c4d8"/>
      </g>
    </g>
  </g>
</svg>
