<svg xmlns="http://www.w3.org/2000/svg" width="48" height="48" viewBox="0 0 48 48">
  <g id="그룹_485" data-name="그룹 485" transform="translate(-2218 -1824)">
    <g id="그룹_484" data-name="그룹 484" transform="translate(1794 896)">
      <rect id="사각형_42" data-name="사각형 42" width="48" height="48" transform="translate(424 928)" fill="none"/>
    </g>
    <path id="rotate-right-solid" d="M65.961,32.11a2.092,2.092,0,0,1,2.109,2.1v11.32a1.487,1.487,0,0,1-1.487,1.487h-11.3a2.094,2.094,0,0,1-2.1-2.11,2.052,2.052,0,0,1,.618-1.466l3.5-3.5a12.386,12.386,0,1,0-7.862,21.95c5.675,0,6.939-2.972,8.93-2.972a2.475,2.475,0,0,1,2.48,2.48c0,2.719-6.33,5.463-11.4,5.463A17.36,17.36,0,1,1,60.8,36.423l3.693-3.7A2.056,2.056,0,0,1,65.961,32.11Z" transform="translate(2191.93 1798.517)" fill="#b5b5b5" stroke="#b5b5b5" stroke-width="2"/>
  </g>
</svg>
