<svg xmlns="http://www.w3.org/2000/svg" width="16" height="16" viewBox="0 0 12 8" style="fill:#61C4D8">
  <path id="folder-open-regular" d="M8,40H9a.688.688,0,0,0,.575-.284l2.333-3.429a.5.5,0,0,0,0-.573.686.686,0,0,0-.577-.286H3a.688.688,0,0,0-.575.284L1,37.805V33.143a.313.313,0,0,1,.333-.286H3.781a.365.365,0,0,1,.235.084l.552.473A2.545,2.545,0,0,0,6.219,34H8.667A.313.313,0,0,1,9,34.286v.571h1v-.571a1.25,1.25,0,0,0-1.333-1.143H6.219a1.455,1.455,0,0,1-.944-.334l-.552-.475A1.455,1.455,0,0,0,3.779,32H1.333A1.25,1.25,0,0,0,0,33.143v5.714A1.25,1.25,0,0,0,1.333,40H8Z" transform="translate(0 -32)"/>
</svg>
