<svg id="preset_list" data-name="preset list" xmlns="http://www.w3.org/2000/svg" width="24" height="24" viewBox="0 0 24 24">
  <rect id="사각형_118" data-name="사각형 118" width="24" height="24" fill="none"/>
  <path id="magic-solid" d="M5.25,2.25l.375-.75.75-.375L5.625.75,5.25,0,4.875.75l-.75.375.75.375ZM1.875,3.75,2.5,2.5l1.25-.625L2.5,1.25,1.875,0,1.25,1.25,0,1.875,1.25,2.5Zm8.25,3L9.5,8l-1.25.625L9.5,9.25l.625,1.25.625-1.25L12,8.625,10.75,8ZM11.78,2.209,9.791.22a.749.749,0,0,0-1.061,0L.22,8.731a.75.75,0,0,0,0,1.061L2.209,11.78a.75.75,0,0,0,1.061,0L11.78,3.269A.749.749,0,0,0,11.78,2.209ZM8.425,4.769,7.231,3.575l2.03-2.03,1.193,1.193-2.03,2.03Z" transform="translate(6 6)" fill="#61c4d8"/>
</svg>
