<svg xmlns="http://www.w3.org/2000/svg" width="24" height="24" viewBox="0 0 24 24">
  <g id="그룹_935" data-name="그룹 935" transform="translate(-380 -928)">
    <rect id="사각형_45" data-name="사각형 45" width="24" height="24" transform="translate(380 928)" fill="none"/>
    <path id="forward-solid" d="M11.731,4.359,7.231.193A.747.747,0,0,0,6,.833V9.165a.746.746,0,0,0,1.231.641l4.5-4.166a.9.9,0,0,0,0-1.281Zm-6,0L1.231.193A.747.747,0,0,0,0,.833V9.165a.746.746,0,0,0,1.231.641l4.5-4.166a.9.9,0,0,0,0-1.281Z" transform="translate(398 945.002) rotate(180)" fill="#b5b5b5"/>
  </g>
</svg>
