<svg xmlns="http://www.w3.org/2000/svg" width="24" height="24" viewBox="0 0 24 24">
  <g id="그룹_1250" data-name="그룹 1250" transform="translate(-276 -968)">
    <rect id="사각형_85" data-name="사각형 85" width="24" height="24" transform="translate(276 968)" fill="none"/>
    <path id="합치기_9" data-name="합치기 9" d="M-1345.916-2072.62a.9.9,0,0,1,0-.76A7.767,7.767,0,0,1-1339-2078a7.767,7.767,0,0,1,6.916,4.62.9.9,0,0,1,0,.76A7.767,7.767,0,0,1-1339-2068,7.766,7.766,0,0,1-1345.916-2072.62Zm1.133-.38a6.566,6.566,0,0,0,5.782,3.75,6.567,6.567,0,0,0,5.783-3.75,6.568,6.568,0,0,0-5.783-3.75A6.567,6.567,0,0,0-1344.783-2073Zm2.783,0a3,3,0,0,1,3-3,3,3,0,0,1,3,3,3,3,0,0,1-3,3A3,3,0,0,1-1342-2073Z" transform="translate(1627 3053)" fill="#b5b5b5"/>
  </g>
</svg>
