<svg xmlns="http://www.w3.org/2000/svg" width="16" height="16" viewBox="0 0 16 16">
  <path id="arrows-rotate-solid" d="M30.933,16a1.066,1.066,0,0,0-1.067,1.067v2.47a7.232,7.232,0,0,0-12.747,2,1.067,1.067,0,0,0,2.03.656,5.1,5.1,0,0,1,9-1.4h-1.48a1.067,1.067,0,0,0,0,2.133h4.267A1.066,1.066,0,0,0,32,21.867v-4.8A1.066,1.066,0,0,0,30.933,16Zm-.74,9.12a1.066,1.066,0,0,0-1.343.686,5.1,5.1,0,0,1-9,1.394h1.48a1.067,1.067,0,0,0,0-2.133H17.067A1.066,1.066,0,0,0,16,26.133v4.8a1.067,1.067,0,0,0,2.133,0v-2.47a7.207,7.207,0,0,0,12.717-2A1.012,1.012,0,0,0,30.193,25.12Z" transform="translate(-16 -16)" fill="#d2d2d2"/>
</svg>
