<svg xmlns="http://www.w3.org/2000/svg" width="24" height="24" viewBox="0 0 24 24">
  <g id="그룹_637" data-name="그룹 637" transform="translate(-1574 -930)">
    <g id="그룹_636" data-name="그룹 636" transform="translate(170)">
      <g id="그룹_634" data-name="그룹 634" transform="translate(-664 409)">
        <rect id="사각형_1062" data-name="사각형 1062" width="24" height="24" transform="translate(2068 521)" fill="none"/>
      </g>
    </g>
    <g id="그룹_633" data-name="그룹 633" transform="translate(21)">
      <path id="합치기_8" data-name="합치기 8" d="M-939-2080v-2h-2a1,1,0,0,1-1-1,1,1,0,0,1,1-1h2v-2a1,1,0,0,1,1-1,1,1,0,0,1,1,1v2h2a1,1,0,0,1,1,1,1,1,0,0,1-1,1h-2v2a1,1,0,0,1-1,1A1,1,0,0,1-939-2080Z" transform="translate(2503 3025)" fill="#61c4d8"/>
    </g>
  </g>
</svg>
