<svg id="filter" xmlns="http://www.w3.org/2000/svg" width="20" height="20" viewBox="0 0 20 20">
  <g id="그룹_813" data-name="그룹 813">
    <rect id="사각형_42" data-name="사각형 42" width="20" height="20" fill="none"/>
  </g>
  <path id="합치기_65" data-name="합치기 65" d="M5.251,9.858,4,8.786a.747.747,0,0,1-.25-.571V6.449L.176,1.458a1,1,0,0,1-.1-.947A.778.778,0,0,1,.781,0H9.22a.779.779,0,0,1,.706.511,1,1,0,0,1-.1.949L6.251,6.449V9.286a.726.726,0,0,1-.346.638.56.56,0,0,1-.654-.067ZM9.727,10a1,1,0,0,1,0-2H15a1,1,0,0,1,0,2Zm0-4a1,1,0,0,1,0-2H15a1,1,0,0,1,0,2Zm2.909-4a1,1,0,1,1,0-2H15a1,1,0,0,1,0,2Z" transform="translate(2 5)" fill="#b5b5b5"/>
</svg>
