<svg xmlns="http://www.w3.org/2000/svg" width="16" height="16" viewBox="0 0 16 16">
  <g id="그룹_831" data-name="그룹 831" transform="translate(-1406 -2374)">
    <g id="그룹_818" data-name="그룹 818" transform="translate(1146 1402)">
      <rect id="사각형_87" data-name="사각형 87" width="16" height="16" transform="translate(260 972)" fill="none"/>
    </g>
    <g id="그룹_821" data-name="그룹 821" transform="translate(-22 -9)">
      <rect id="사각형_1084" data-name="사각형 1084" width="8" height="6" rx="1" transform="translate(1432 2390)" fill="#b5b5b5"/>
      <path id="빼기_12" data-name="빼기 12" d="M3,4H1V3A3,3,0,0,1,7,3V4H5V3A1,1,0,0,0,3,3V4Z" transform="translate(1436 2386)" fill="#b5b5b5"/>
      <path id="사각형_1091" data-name="사각형 1091" d="M0,0H2A0,0,0,0,1,2,0V0A1,1,0,0,1,1,1H1A1,1,0,0,1,0,0V0A0,0,0,0,1,0,0Z" transform="translate(1441 2390)" fill="#b5b5b5"/>
    </g>
  </g>
</svg>
