<svg xmlns="http://www.w3.org/2000/svg" width="32" height="32" viewBox="0 0 32 32">
  <g id="그룹_882" data-name="그룹 882" transform="translate(-1040 -4)">
    <g id="그룹_606" data-name="그룹 606" transform="translate(1040 4)">
      <g id="그룹_604" data-name="그룹 604">
        <rect id="사각형_3" data-name="사각형 3" width="32" height="32" fill="none"/>
      </g>
    </g>
    <g id="그룹_873" data-name="그룹 873">
      <path id="합치기_22" data-name="합치기 22" d="M-464-81V-95a1,1,0,0,1,1-1,1,1,0,0,1,1,1v14a1,1,0,0,1-1,1A1,1,0,0,1-464-81Zm-10,0V-95a1,1,0,0,1,1-1,1,1,0,0,1,1,1v14a1,1,0,0,1-1,1A1,1,0,0,1-474-81Zm5-1a1,1,0,0,1-1-1V-93a1,1,0,0,1,1-1h2a1,1,0,0,1,1,1v10a1,1,0,0,1-1,1Z" transform="translate(1524 108)" fill="#b5b5b5"/>
    </g>
  </g>
</svg>
