<svg id="그룹_1296" data-name="그룹 1296" xmlns="http://www.w3.org/2000/svg" width="32" height="32" viewBox="0 0 32 32">
  <rect id="사각형_5" data-name="사각형 5" width="32" height="32" fill="none"/>
  <path id="square-poll-vertical-solid" d="M2.286,32A2.288,2.288,0,0,0,0,34.286V45.714A2.288,2.288,0,0,0,2.286,48H13.714A2.288,2.288,0,0,0,16,45.714V34.286A2.288,2.288,0,0,0,13.714,32Zm2.286,6.857A1.142,1.142,0,0,1,5.714,40v3.429a1.143,1.143,0,0,1-2.286,0V40A1.142,1.142,0,0,1,4.571,38.857Zm2.286-2.286a1.143,1.143,0,0,1,2.286,0v6.857a1.143,1.143,0,0,1-2.286,0Zm4.571,4.571a1.142,1.142,0,0,1,1.143,1.143v1.143a1.143,1.143,0,0,1-2.286,0V42.286A1.142,1.142,0,0,1,11.429,41.143Z" transform="translate(8 -24)" fill="#b5b5b5"/>
</svg>
