<svg xmlns="http://www.w3.org/2000/svg" width="32" height="32" viewBox="0 0 32 32">
  <g id="그룹_885" data-name="그룹 885" transform="translate(-1040 -4)">
    <g id="그룹_606" data-name="그룹 606" transform="translate(1040 4)">
      <g id="그룹_604" data-name="그룹 604">
        <rect id="사각형_3" data-name="사각형 3" width="32" height="32" fill="none"/>
      </g>
    </g>
    <g id="그룹_873" data-name="그룹 873">
      <path id="합치기_24" data-name="합치기 24" d="M-492-49V-63a1,1,0,0,1,1-1,1,1,0,0,1,1,1v14a1,1,0,0,1-1,1A1,1,0,0,1-492-49Zm-13-2a1,1,0,0,1-1-1v-2a1,1,0,0,1,1-1h10a1,1,0,0,1,1,1v2a1,1,0,0,1-1,1Zm4-6a1,1,0,0,1-1-1v-2a1,1,0,0,1,1-1h6a1,1,0,0,1,1,1v2a1,1,0,0,1-1,1Z" transform="translate(1554 76)" fill="#b5b5b5"/>
    </g>
  </g>
</svg>
