<svg xmlns="http://www.w3.org/2000/svg" width="32" height="32" viewBox="0 0 32 32">
  <g id="그룹_880" data-name="그룹 880" transform="translate(-1040 -4)">
    <g id="그룹_606" data-name="그룹 606" transform="translate(1040 4)">
      <g id="그룹_604" data-name="그룹 604">
        <rect id="사각형_3" data-name="사각형 3" width="32" height="32" fill="none"/>
      </g>
    </g>
    <g id="그룹_873" data-name="그룹 873">
      <path id="합치기_16" data-name="합치기 16" d="M-374,91a1,1,0,0,1-1-1V86h-2a1,1,0,0,1-1-1,1,1,0,0,1,1-1h2V80a1,1,0,0,1,1-1h2a1,1,0,0,1,1,1v4h2V82a1,1,0,0,1,1-1h2a1,1,0,0,1,1,1v2h2a1,1,0,0,1,1,1,1,1,0,0,1-1,1h-2v2a1,1,0,0,1-1,1h-2a1,1,0,0,1-1-1V86h-2v4a1,1,0,0,1-1,1Z" transform="translate(1426 -65)" fill="#b5b5b5"/>
    </g>
  </g>
</svg>
