<svg id="panel_hide_toggle" data-name="panel hide toggle" xmlns="http://www.w3.org/2000/svg" width="16" height="40" viewBox="0 0 16 40">
  <path id="사각형_2086" data-name="사각형 2086" d="M4,0H16a0,0,0,0,1,0,0V40a0,0,0,0,1,0,0H4a4,4,0,0,1-4-4V4A4,4,0,0,1,4,0Z" fill="#f5f5f5" opacity="0.8"/>
  <path id="합치기_34" data-name="합치기 34" d="M8,4,4,8ZM4,4,0,8ZM8,4ZM4,0,8,4ZM8,4ZM4,4ZM0,0,4,4ZM4,4Z" transform="translate(4 16)" fill="rgba(0,0,0,0)" stroke="#b5b5b5" stroke-linecap="round" stroke-linejoin="round" stroke-width="2"/>
</svg>
