<svg id="그룹_1327" data-name="그룹 1327" xmlns="http://www.w3.org/2000/svg" width="32" height="32" viewBox="0 0 32 32">
  <rect id="사각형_41" data-name="사각형 41" width="32" height="32" fill="none"/>
  <path id="music-solid" d="M15.6.145a1,1,0,0,1,.4.8v10.5a2.784,2.784,0,0,1-3,2.5,2.784,2.784,0,0,1-3-2.5,2.784,2.784,0,0,1,3-2.5,3.485,3.485,0,0,1,1,.144V4.541l-8,2.4v6.506a2.784,2.784,0,0,1-3,2.5,2.784,2.784,0,0,1-3-2.5,2.784,2.784,0,0,1,3-2.5,3.485,3.485,0,0,1,1,.144V3.947a1,1,0,0,1,.713-.959l10-3A1,1,0,0,1,15.6.145Z" transform="translate(8 8.054)" fill="#61c4d8"/>
</svg>
