<svg xmlns="http://www.w3.org/2000/svg" width="48" height="48" viewBox="0 0 48 48">
  <g id="그룹_31" data-name="그룹 31" transform="translate(-948 -16)">
    <rect id="사각형_41" data-name="사각형 41" width="48" height="48" transform="translate(948 16)" fill="none"/>
    <path id="file-image-solid" d="M24.25,7.7v.383H16.167V0h.383a1.516,1.516,0,0,1,1.072.444l6.185,6.185A1.516,1.516,0,0,1,24.25,7.7Zm-8.589,2.4a1.52,1.52,0,0,1-1.516-1.516V0H1.516A1.516,1.516,0,0,0,0,1.516v29.3a1.516,1.516,0,0,0,1.516,1.516H22.734a1.516,1.516,0,0,0,1.516-1.516V10.1Zm-8.554,1.01a3.031,3.031,0,1,1-3.031,3.031A3.031,3.031,0,0,1,7.107,11.115ZM20.243,26.271H4.076l.031-3.062,2.5-2.5a.722.722,0,0,1,1.041.031l2.5,2.5L16.676,16.7a.758.758,0,0,1,1.072,0l2.5,2.5v7.073Z" transform="translate(960 24)" fill="#61c4d8"/>
  </g>
</svg>
