<svg xmlns="http://www.w3.org/2000/svg" width="48" height="48" viewBox="0 0 48 48">
  <g id="그룹_612" data-name="그룹 612" transform="translate(-606 -16)">
    <g id="그룹_611" data-name="그룹 611" transform="translate(24)">
      <g id="그룹_605" data-name="그룹 605" transform="translate(-206)">
        <rect id="사각형_3" data-name="사각형 3" width="48" height="48" transform="translate(788 16)" fill="none"/>
      </g>
    </g>
    <path id="cloud-arrow-down-solid" d="M8.1,57.2A8.1,8.1,0,0,1,5.411,41.456Q5.4,41.228,5.4,41a9,9,0,0,1,16.8-4.489,5,5,0,0,1,3-.911A5.369,5.369,0,0,1,30.6,41a5.46,5.46,0,0,1-.36,1.946A7.2,7.2,0,0,1,28.8,57.2Zm8.944-4.944a1.222,1.222,0,0,0,1.862,0l4.5-4.5a1.222,1.222,0,0,0,0-1.862,1.3,1.3,0,0,0-1.862,0l-2.194,2.2V40.55a1.35,1.35,0,0,0-2.7,0v7.543l-2.244-2.2a1.317,1.317,0,1,0-1.862,1.862Z" transform="translate(612 -5)" fill="#61c4d8"/>
  </g>
</svg>
