<svg xmlns="http://www.w3.org/2000/svg" width="32" height="32" viewBox="0 0 32 32">
  <g id="그룹_1297" data-name="그룹 1297" transform="translate(-1113 186)">
    <rect id="사각형_2086" data-name="사각형 2086" width="32" height="32" transform="translate(1113 -186)" fill="none"/>
    <path id="합치기_34" data-name="합치기 34" d="M2,16a2,2,0,0,1-2-2V11H16v3a2,2,0,0,1-2,2Zm4-3h4v.5a.5.5,0,0,0,1,0v-1a.5.5,0,0,0-.5-.5h-5a.5.5,0,0,0-.5.5v1a.5.5,0,0,0,1,0V13H6Zm10-3H0V6H16v4h0ZM6,8h4v.5a.5.5,0,0,0,1,0v-1a.5.5,0,0,0-.5-.5h-5a.5.5,0,0,0-.5.5v1a.5.5,0,0,0,1,0V8H6ZM16,5H0V2A2,2,0,0,1,2,0H14a2,2,0,0,1,2,2V5h0ZM6,3h4v.5a.5.5,0,0,0,1,0v-1a.5.5,0,0,0-.5-.5h-5a.5.5,0,0,0-.5.5v1a.5.5,0,0,0,1,0V3H6Z" transform="translate(1121 -178)" fill="#b5b5b5"/>
  </g>
</svg>
