<svg xmlns="http://www.w3.org/2000/svg" width="48" height="48" viewBox="0 0 48 48">
  <g id="그룹_32" data-name="그룹 32" transform="translate(-868 -16)">
    <rect id="사각형_107" data-name="사각형 107" width="48" height="48" transform="translate(868 16)" fill="none"/>
    <path id="desktop-solid" d="M31.917,0H2.9A2.9,2.9,0,0,0,0,2.9V22.245a2.9,2.9,0,0,0,2.9,2.9H14.508l-.967,2.9H9.188a1.451,1.451,0,1,0,0,2.9H25.63a1.451,1.451,0,1,0,0-2.9H21.278l-.967-2.9H31.917a2.9,2.9,0,0,0,2.9-2.9V2.9A2.9,2.9,0,0,0,31.917,0ZM30.95,21.278H3.869V3.869H30.95Z" transform="translate(874.591 25.025)" fill="#b5b5b5"/>
  </g>
</svg>
