<svg xmlns="http://www.w3.org/2000/svg" width="48" height="48" viewBox="0 0 48 48">
  <g id="그룹_131" data-name="그룹 131" transform="translate(-1092 -16)">
    <g id="그룹_126" data-name="그룹 126" transform="translate(80)">
      <rect id="사각형_5" data-name="사각형 5" width="48" height="48" transform="translate(1012 16)" fill="none"/>
    </g>
    <path id="sitemap-solid" d="M14.558,35.429A3.4,3.4,0,0,1,17.917,32H22.4a3.4,3.4,0,0,1,3.36,3.429V40a3.4,3.4,0,0,1-3.36,3.429h-.56v2.857H32.475a3.963,3.963,0,0,1,3.919,4v2.286h.56A3.4,3.4,0,0,1,40.314,56v4.571A3.4,3.4,0,0,1,36.954,64H32.475a3.4,3.4,0,0,1-3.359-3.429V56a3.4,3.4,0,0,1,3.359-3.429h.56V50.286a.567.567,0,0,0-.56-.571H21.837v2.857h.56A3.4,3.4,0,0,1,25.756,56v4.571A3.4,3.4,0,0,1,22.4,64H17.917a3.4,3.4,0,0,1-3.359-3.429V56a3.4,3.4,0,0,1,3.359-3.429h.56V49.714H7.839a.567.567,0,0,0-.56.571v2.286h.56A3.4,3.4,0,0,1,11.2,56v4.571A3.4,3.4,0,0,1,7.839,64H3.359A3.4,3.4,0,0,1,0,60.571V56a3.4,3.4,0,0,1,3.359-3.429h.56V50.286a3.962,3.962,0,0,1,3.919-4H18.477V43.429h-.56A3.4,3.4,0,0,1,14.558,40Z" transform="translate(1095.843 -8)" fill="#61c4d8"/>
  </g>
</svg>
