<svg xmlns="http://www.w3.org/2000/svg" width="48" height="48" viewBox="0 0 48 48">
  <g id="그룹_30" data-name="그룹 30" transform="translate(-1012 -16)">
    <rect id="사각형_5" data-name="사각형 5" width="48" height="48" transform="translate(1012 16)" fill="none"/>
    <path id="shapes-solid" d="M8.173,16.344a8.173,8.173,0,1,0,8.173,8.173A8.173,8.173,0,0,0,8.173,16.344Zm24.2-3.5L25.544,1.167a2.379,2.379,0,0,0-4.1,0L14.621,12.841a2.336,2.336,0,0,0,2.049,3.5H30.322A2.336,2.336,0,0,0,32.371,12.841Zm-1.724,5.546H20.431a2.043,2.043,0,0,0-2.043,2.043V30.646a2.043,2.043,0,0,0,2.043,2.043H30.647a2.043,2.043,0,0,0,2.043-2.043V20.43A2.043,2.043,0,0,0,30.647,18.387Z" transform="translate(1019.655 23.656)" fill="#61c4d8"/>
  </g>
</svg>
