<svg xmlns="http://www.w3.org/2000/svg" width="48" height="48" viewBox="0 0 48 48">
  <g id="그룹_621" data-name="그룹 621" transform="translate(-510 -16)">
    <g id="그룹_607" data-name="그룹 607" transform="translate(-72)">
      <g id="그룹_605" data-name="그룹 605" transform="translate(-206)">
        <rect id="사각형_3" data-name="사각형 3" width="48" height="48" transform="translate(788 16)" fill="none"/>
      </g>
    </g>
    <path id="floppy-disk-solid" d="M30.936,38.936l-5.993-5.993A3.926,3.926,0,0,0,22.579,32H4.571A4.571,4.571,0,0,0,0,36.571V59.429A4.571,4.571,0,0,0,4.571,64H27.429A4.571,4.571,0,0,0,32,59.429V41.421A3.972,3.972,0,0,0,30.936,38.936ZM16,59.429a4.571,4.571,0,1,1,4.571-4.571A4.572,4.572,0,0,1,16,59.429Zm6.857-14.857a1.146,1.146,0,0,1-1.143,1.143h-16a1.144,1.144,0,0,1-1.143-1.143V37.714a1.144,1.144,0,0,1,1.143-1.143h16a1.146,1.146,0,0,1,1.143,1.143Z" transform="translate(518 -8)" fill="#61c4d8"/>
  </g>
</svg>
