<svg id="그룹_1287" data-name="그룹 1287" xmlns="http://www.w3.org/2000/svg" width="32" height="32" viewBox="0 0 32 32">
  <path id="download-solid" d="M9,1A1,1,0,0,0,7,1V8.584L4.706,6.291A1,1,0,0,0,3.291,7.706l4,4a1,1,0,0,0,1.416,0l4-4a1,1,0,0,0-1.416-1.416L9,8.584ZM2,11a2,2,0,0,0-2,2v1a2,2,0,0,0,2,2H14a2,2,0,0,0,2-2V13a2,2,0,0,0-2-2H10.828L9.413,12.416a2,2,0,0,1-2.828,0L5.172,11Zm11.5,1.75a.75.75,0,1,1-.75.75A.75.75,0,0,1,13.5,12.75Z" transform="translate(8 8)" fill="#b5b5b5"/>
  <rect id="사각형_5" data-name="사각형 5" width="32" height="32" fill="none"/>
</svg>
