<svg id="그룹_1162" data-name="그룹 1162" xmlns="http://www.w3.org/2000/svg" width="32" height="32" viewBox="0 0 32 32">
  <rect id="사각형_41" data-name="사각형 41" width="32" height="32" fill="none"/>
  <path id="youtube" d="M30.6,65.878a2.083,2.083,0,0,0-1.415-1.519A44.57,44.57,0,0,0,22.933,64a44.57,44.57,0,0,0-6.251.359,2.083,2.083,0,0,0-1.415,1.519,25.732,25.732,0,0,0,0,8.269,2.049,2.049,0,0,0,1.415,1.494A44.571,44.571,0,0,0,22.933,76a44.571,44.571,0,0,0,6.251-.359A2.049,2.049,0,0,0,30.6,74.147a25.732,25.732,0,0,0,0-8.269ZM21.3,72.55V67.475l4.182,2.538Z" transform="translate(-6.933 -54)" fill="#61c4d8"/>
</svg>
