<svg id="그룹_1164" data-name="그룹 1164" xmlns="http://www.w3.org/2000/svg" width="32" height="32" viewBox="0 0 32 32">
  <rect id="사각형_41" data-name="사각형 41" width="32" height="32" fill="none"/>
  <path id="file-image-solid" d="M12,3.811V4H8V0h.189a.75.75,0,0,1,.53.22L11.78,3.28A.75.75,0,0,1,12,3.811ZM7.75,5A.752.752,0,0,1,7,4.25V0H.75A.75.75,0,0,0,0,.75v14.5A.75.75,0,0,0,.75,16h10.5a.75.75,0,0,0,.75-.75V5Zm-4.233.5A1.5,1.5,0,1,1,2.017,7,1.5,1.5,0,0,1,3.517,5.5Zm6.5,7.5h-8l.015-1.515L3.267,10.25a.357.357,0,0,1,.515.015L5.017,11.5,8.252,8.265a.375.375,0,0,1,.53,0L10.017,9.5V13Z" transform="translate(10 8)" fill="#484b4e"/>
</svg>
