<svg xmlns="http://www.w3.org/2000/svg" width="48" height="48" viewBox="0 0 48 48">
  <g id="그룹_33" data-name="그룹 33" transform="translate(-788 -16)">
    <rect id="사각형_3" data-name="사각형 3" width="48" height="48" transform="translate(788 16)" fill="none"/>
    <path id="file-solid" d="M14.146,8.683V0H1.516A1.52,1.52,0,0,0,0,1.532V31.158A1.52,1.52,0,0,0,1.516,32.69H22.734a1.52,1.52,0,0,0,1.516-1.532V10.216H15.662A1.529,1.529,0,0,1,14.146,8.683Zm10.1-.9v.389H16.167V0h.385a1.506,1.506,0,0,1,1.074.447L23.808,6.7A1.536,1.536,0,0,1,24.25,7.783Z" transform="translate(799.875 23.31)" fill="#61c4d8"/>
  </g>
</svg>
