<svg xmlns="http://www.w3.org/2000/svg" width="48" height="48" viewBox="0 0 48 48">
  <g id="그룹_617" data-name="그룹 617" transform="translate(-646 -16)">
    <g id="그룹_614" data-name="그룹 614" transform="translate(40)">
      <g id="그룹_611" data-name="그룹 611" transform="translate(24)">
        <g id="그룹_605" data-name="그룹 605" transform="translate(-206)">
          <rect id="사각형_3" data-name="사각형 3" width="48" height="48" transform="translate(788 16)" fill="none"/>
        </g>
      </g>
    </g>
    <path id="rotate-left-solid" d="M48,47.453A15.464,15.464,0,0,1,32.559,62.894,15.3,15.3,0,0,1,23.3,59.8a2.207,2.207,0,1,1,2.651-3.53,11.035,11.035,0,1,0-.375-17.311l3.112,3.113a1.863,1.863,0,0,1-1.317,3.179H17.322A1.321,1.321,0,0,1,16,43.929V33.869a1.861,1.861,0,0,1,3.177-1.315l3.283,3.285A15.386,15.386,0,0,1,48,47.453Z" transform="translate(638 -7.005)" fill="#61c4d8"/>
  </g>
</svg>
