<svg xmlns="http://www.w3.org/2000/svg" width="32" height="32" viewBox="0 0 32 32">
  <g id="그룹_865" data-name="그룹 865" transform="translate(-0.24)">
    <g id="그룹_614" data-name="그룹 614" transform="translate(0.24)">
      <g id="그룹_611" data-name="그룹 611">
        <g id="그룹_605" data-name="그룹 605">
          <rect id="사각형_3" data-name="사각형 3" width="32" height="32" fill="none"/>
        </g>
      </g>
    </g>
    <path id="rotate-left-solid" d="M32,40.006a7.875,7.875,0,0,1-7.721,8,7.48,7.48,0,0,1-4.628-1.6,1.171,1.171,0,0,1-.22-1.6,1.08,1.08,0,0,1,1.545-.228,5.34,5.34,0,0,0,3.306,1.141,5.712,5.712,0,0,0,0-11.416,5.4,5.4,0,0,0-3.493,1.309l1.556,1.612a.969.969,0,0,1-.659,1.647H16.661A.673.673,0,0,1,16,38.181v-5.21a.927.927,0,0,1,1.589-.681l1.641,1.7a7.564,7.564,0,0,1,5.049-1.982A7.874,7.874,0,0,1,32,40.006Z" transform="translate(-7.76 -24.005)" fill="#b5b5b5"/>
  </g>
</svg>
