<svg xmlns="http://www.w3.org/2000/svg" width="48" height="48" viewBox="0 0 48 48">
  <g id="그룹_613" data-name="그룹 613" transform="translate(-670 -16)">
    <g id="그룹_610" data-name="그룹 610" transform="translate(24)">
      <g id="그룹_604" data-name="그룹 604" transform="translate(-142)">
        <rect id="사각형_3" data-name="사각형 3" width="48" height="48" transform="translate(788 16)" fill="none"/>
      </g>
    </g>
    <path id="cloud-arrow-up-solid" d="M8.1,57.2A8.1,8.1,0,0,1,5.411,41.456Q5.4,41.228,5.4,41a9,9,0,0,1,16.8-4.489,5,5,0,0,1,3-.911A5.369,5.369,0,0,1,30.6,41a5.46,5.46,0,0,1-.36,1.946A7.2,7.2,0,0,1,28.8,57.2Zm4.444-12.206a1.3,1.3,0,0,0,0,1.862,1.222,1.222,0,0,0,1.862,0l2.244-2.149V52.25a1.35,1.35,0,1,0,2.7,0V44.707l2.194,2.149a1.317,1.317,0,0,0,1.862-1.862l-4.5-4.5a1.3,1.3,0,0,0-1.862,0Z" transform="translate(676 -5)" fill="#d2d2d2"/>
  </g>
</svg>
