<svg xmlns="http://www.w3.org/2000/svg" width="32" height="32" viewBox="0 0 32 32">
  <g id="그룹_621" data-name="그룹 621" transform="translate(-510 -16)">
    <g id="그룹_607" data-name="그룹 607" transform="translate(510 16)">
      <g id="그룹_605" data-name="그룹 605">
        <rect id="사각형_3" data-name="사각형 3" width="32" height="32" fill="none"/>
      </g>
    </g>
    <path id="floppy-disk-solid" d="M14.468,34.468l-2-2A1.963,1.963,0,0,0,11.29,32h-9A2.285,2.285,0,0,0,0,34.285V45.715A2.286,2.286,0,0,0,2.285,48H12.715A2.286,2.286,0,0,0,15,45.715v-10a1.986,1.986,0,0,0-.532-1.243ZM8,45.715a2.285,2.285,0,1,1,2.285-2.285A2.286,2.286,0,0,1,8,45.715Zm3.429-7.429a.573.573,0,0,1-.572.572h-8a.572.572,0,0,1-.572-.572V34.857a.572.572,0,0,1,.572-.572h8a.573.573,0,0,1,.571.571Z" transform="translate(519 -8)" fill="#b5b5b5"/>
  </g>
</svg>
